<svg width="23" height="22" viewBox="0 0 23 22" fill="none" xmlns="http://www.w3.org/2000/svg">
<path d="M0.979212 0.393479C1.36974 0.00295487 2.0029 0.0029549 2.39343 0.393479L22.1924 20.1925C22.5829 20.583 22.5829 21.2162 22.1924 21.6067C21.8019 21.9972 21.1687 21.9972 20.7782 21.6067L0.979212 1.80769C0.588688 1.41717 0.588687 0.784003 0.979212 0.393479Z" fill="#464551"/>
<path d="M21.5061 0.393479C21.1156 0.00295487 20.4824 0.0029549 20.0919 0.393479L0.292893 20.1925C-0.0976308 20.583 -0.0976314 21.2162 0.292893 21.6067C0.683417 21.9972 1.31658 21.9972 1.70711 21.6067L21.5061 1.80769C21.8966 1.41717 21.8966 0.784003 21.5061 0.393479Z" fill="#464551"/>
</svg>
