<svg width="14" height="9" viewBox="0 0 14 9" fill="none" xmlns="http://www.w3.org/2000/svg">
<path d="M1.02434 0C0.892498 0 0.766377 0.0247503 0.650854 0.0702652L6.65339 5.23027C6.8699 5.41607 7.14181 5.41595 7.35773 5.23027L13.3493 0.0702652C13.2338 0.0247478 13.1076 0 12.9758 0H1.02434ZM0.0105994 0.887013C0.00357281 0.936029 0 0.987463 0 1.03841V7.96168C0 8.10728 0.0271535 8.24721 0.0800318 8.37278L4.24717 4.52171L0.0105994 0.887013ZM13.9895 0.887013L9.7638 4.51648L13.92 8.3728C13.9728 8.24724 14 8.10731 14 7.9617V1.03843C14 0.98736 13.9962 0.936048 13.9894 0.887032L13.9895 0.887013ZM8.97965 5.19242L8.01926 6.01991C7.43688 6.52082 6.57406 6.51987 5.99179 6.01991L5.03678 5.19771L0.92848 8.99469C0.959682 8.99747 0.992554 9 1.02447 9H12.9759C13.0096 9 13.0444 8.99771 13.0772 8.99469L8.97965 5.19242Z" fill="#DADADA"/>
</svg>
