<svg width="56" height="60" viewBox="0 0 56 60" fill="none" xmlns="http://www.w3.org/2000/svg">
<path d="M0 39.6003V19.9335L16.7203 2.60013H13.5356V0.000118983H20.9005V7.66658H18.4457V4.33323L2.4552 20.9333V39.6C2.4552 49.4001 10.2182 57.4668 19.64 57.4668H36.3603C45.782 57.4668 53.545 49.3998 53.545 39.6V38.6002C53.545 28.8002 45.782 20.7335 36.3603 20.7335H36.4265V18.2H36.3603C47.1755 18.2 56 27.4002 56 38.6001V39.5999C56 50.7997 47.1754 60 36.3603 60H19.64C8.82472 60 0 50.8002 0 39.6003ZM6.10424 39.6003V26.2669L28.9951 2.53346H25.8104V0H33.1753V7.66646H30.6539V4.33311L8.55921 27.3332V39.5999C8.55921 46.0002 13.4693 51.0666 19.5735 51.0666H36.2938C42.398 51.0666 47.3743 45.9332 47.3743 39.5999V38.6001C47.3743 32.1998 42.4643 27.1334 36.2938 27.1334H36.36V24.5999H36.2938C43.7915 24.5999 49.8293 30.8667 49.8293 38.6667V39.6665C49.8293 47.4665 43.7913 53.7332 36.2938 53.7332H19.6398C12.1421 53.5997 6.10424 47.3339 6.10424 39.6003Z" fill="white"/>
<path d="M12.275 39.6003V32.6667L28.9953 15.3333H25.8106V12.7998H33.1755V20.4663L30.6536 20.4672V17.1338L14.7295 33.7339V39.6007C14.7295 42.4007 16.9191 44.7342 19.6396 44.7342H36.3599C39.0804 44.7342 41.2699 42.4676 41.2699 39.6007V38.6009C41.2699 35.8009 39.0804 33.4674 36.3599 33.4674H36.4261V30.934H36.3599C40.4072 30.934 43.7248 34.4008 43.7248 38.6004V39.6002C43.7248 43.8004 40.4072 47.2667 36.3599 47.2667L19.6396 47.2672C15.5922 47.2007 12.275 43.8004 12.275 39.6003Z" fill="white"/>
<path d="M12.275 39.6003V32.6667L28.9953 15.3333H25.8106V12.7998H33.1755V20.4663L30.6536 20.4672V17.1338L14.7295 33.7339V39.6007C14.7295 42.4007 16.9191 44.7342 19.6396 44.7342H36.3599C39.0804 44.7342 41.2699 42.4676 41.2699 39.6007V38.6009C41.2699 35.8009 39.0804 33.4674 36.3599 33.4674H36.4261V30.934H36.3599C40.4072 30.934 43.7248 34.4008 43.7248 38.6004V39.6002C43.7248 43.8004 40.4072 47.2667 36.3599 47.2667L19.6396 47.2672C15.5922 47.2007 12.275 43.8004 12.275 39.6003Z" fill="#E65425"/>
</svg>
