<svg width="50" height="66" viewBox="0 0 50 66" fill="none" xmlns="http://www.w3.org/2000/svg">
<path d="M25.0423 2.49597C25.0504 2.50428 25.0585 2.51262 25.0667 2.52101C25.6685 3.13906 26.5432 3.98122 27.6439 4.88772C29.8343 6.69157 32.9748 8.79596 36.6841 9.85575C40.3624 10.9067 43.7673 10.9045 46.2454 10.6437C47.2884 10.5339 48.1723 10.3777 48.85 10.2325V35.2187C48.849 35.2351 48.8475 35.2596 48.8453 35.292C48.8405 35.3629 48.8324 35.4715 48.8195 35.6147C48.7937 35.9011 48.7489 36.3257 48.6736 36.8641C48.5229 37.9418 48.2504 39.4718 47.7651 41.2615C46.7923 44.8487 44.9765 49.4338 41.6123 53.5189C38.2523 57.5989 34.0331 60.2587 30.6256 61.9016C28.926 62.7211 27.4404 63.2817 26.384 63.6364C25.8562 63.8136 25.4366 63.939 25.1522 64.0193C25.0909 64.0366 25.0359 64.0518 24.9875 64.065C24.9399 64.0531 24.886 64.0393 24.826 64.0236C24.5429 63.9496 24.1247 63.8331 23.5984 63.6658C22.545 63.3309 21.0628 62.7943 19.3669 61.9918C15.968 60.3834 11.7553 57.7282 8.398 53.5316C5.02404 49.3142 3.20665 44.7207 2.23426 41.1654C1.74888 39.3907 1.47659 37.884 1.32602 36.8262C1.25078 36.2976 1.20606 35.882 1.18032 35.6022C1.16746 35.4623 1.15935 35.3565 1.15455 35.2874C1.15243 35.2569 1.15095 35.2336 1.15 35.2178V10.0766C1.21416 10.0849 1.28031 10.0933 1.34837 10.1019C2.29552 10.2213 3.61658 10.3646 5.11424 10.4602C8.07309 10.649 11.8587 10.6624 14.8026 9.85948C17.8295 9.03396 20.6227 6.8753 22.5981 5.02731C23.6008 4.08934 24.4242 3.20128 24.9976 2.5471C25.0127 2.5299 25.0276 2.51285 25.0423 2.49597Z" stroke="white" stroke-width="2.3"/>
<path d="M25.0431 9.49171C25.5193 9.97523 26.1692 10.5941 26.9656 11.2551C28.7307 12.72 31.2714 14.4379 34.2818 15.3047C37.2613 16.1626 40.0174 16.1604 42.0213 15.9478C42.7284 15.8728 43.3454 15.7713 43.85 15.6705V35.5324C43.8493 35.5447 43.8482 35.5617 43.8468 35.5833C43.843 35.6389 43.8366 35.7249 43.8264 35.8387C43.8061 36.0664 43.7706 36.4052 43.7109 36.8356C43.5914 37.6971 43.3751 38.9215 42.9895 40.3543C42.2163 43.2277 40.7748 46.8926 38.1095 50.1541C35.4489 53.4099 32.1044 55.536 29.3974 56.8513C28.048 57.5069 26.8689 57.9554 26.0315 58.2387C25.6131 58.3802 25.2811 58.4802 25.057 58.544C25.0326 58.5509 25.0094 58.5574 24.9875 58.5635C24.9666 58.5581 24.9444 58.5524 24.921 58.5462C24.6983 58.4875 24.3677 58.3947 23.9508 58.2612C23.1164 57.9939 21.9407 57.565 20.595 56.9232C17.8967 55.6365 14.5587 53.5151 11.9007 50.1668C9.22578 46.7972 7.78267 43.1238 7.00985 40.2763C6.62427 38.8556 6.4081 37.6499 6.2887 36.8045C6.22903 36.3821 6.19365 36.0506 6.17337 35.8283C6.16323 35.7172 6.15686 35.6334 6.15313 35.5793C6.15174 35.5592 6.15072 35.5432 6.15 35.5315V15.5232C6.90293 15.6173 7.92448 15.7266 9.07618 15.8007C11.4477 15.9533 14.5095 15.9668 16.9048 15.3085C19.383 14.6274 21.6515 12.8546 23.2389 11.3581C23.9743 10.6648 24.5899 10.0053 25.0431 9.49171Z" stroke="white" stroke-width="2.3"/>
<path d="M17 25.75C17 26.8546 15.8807 27.75 14.5 27.75C13.1193 27.75 12 26.8546 12 25.75" stroke="white" stroke-width="2.3"/>
<path d="M17 25.75C17 26.8546 15.8807 27.75 14.5 27.75C13.1193 27.75 12 26.8546 12 25.75" stroke="#E65425" stroke-width="2.3"/>
<path d="M17 33.75C17 34.8546 15.8807 35.75 14.5 35.75C13.1193 35.75 12 34.8546 12 33.75" stroke="white" stroke-width="2.3"/>
<path d="M17 33.75C17 34.8546 15.8807 35.75 14.5 35.75C13.1193 35.75 12 34.8546 12 33.75" stroke="#E65425" stroke-width="2.3"/>
<path d="M28 25.75C28 26.8546 26.6569 27.75 25 27.75C23.3431 27.75 22 26.8546 22 25.75" stroke="white" stroke-width="2.3"/>
<path d="M28 25.75C28 26.8546 26.6569 27.75 25 27.75C23.3431 27.75 22 26.8546 22 25.75" stroke="#E65425" stroke-width="2.3"/>
<path d="M28 33.75C28 34.8546 26.6569 35.75 25 35.75C23.3431 35.75 22 34.8546 22 33.75" stroke="white" stroke-width="2.3"/>
<path d="M28 33.75C28 34.8546 26.6569 35.75 25 35.75C23.3431 35.75 22 34.8546 22 33.75" stroke="#E65425" stroke-width="2.3"/>
<path d="M38 25.75C38 26.8546 36.8807 27.75 35.5 27.75C34.1193 27.75 33 26.8546 33 25.75" stroke="white" stroke-width="2.3"/>
<path d="M38 25.75C38 26.8546 36.8807 27.75 35.5 27.75C34.1193 27.75 33 26.8546 33 25.75" stroke="#E65425" stroke-width="2.3"/>
<path d="M38 33.75C38 34.8546 36.8807 35.75 35.5 35.75C34.1193 35.75 33 34.8546 33 33.75" stroke="white" stroke-width="2.3"/>
<path d="M38 33.75C38 34.8546 36.8807 35.75 35.5 35.75C34.1193 35.75 33 34.8546 33 33.75" stroke="#E65425" stroke-width="2.3"/>
<path d="M22 25.75C22 25.1977 20.8807 24.75 19.5 24.75C18.1193 24.75 17 25.1977 17 25.75" stroke="white" stroke-width="2.3"/>
<path d="M22 25.75C22 25.1977 20.8807 24.75 19.5 24.75C18.1193 24.75 17 25.1977 17 25.75" stroke="#E65425" stroke-width="2.3"/>
<path d="M22 33.75C22 33.1977 20.8807 32.75 19.5 32.75C18.1193 32.75 17 33.1977 17 33.75" stroke="white" stroke-width="2.3"/>
<path d="M22 33.75C22 33.1977 20.8807 32.75 19.5 32.75C18.1193 32.75 17 33.1977 17 33.75" stroke="#E65425" stroke-width="2.3"/>
<path d="M33 25.75C33 25.1977 31.8807 24.75 30.5 24.75C29.1193 24.75 28 25.1977 28 25.75" stroke="white" stroke-width="2.3"/>
<path d="M33 25.75C33 25.1977 31.8807 24.75 30.5 24.75C29.1193 24.75 28 25.1977 28 25.75" stroke="#E65425" stroke-width="2.3"/>
<path d="M33 33.75C33 33.1977 31.8807 32.75 30.5 32.75C29.1193 32.75 28 33.1977 28 33.75" stroke="white" stroke-width="2.3"/>
<path d="M33 33.75C33 33.1977 31.8807 32.75 30.5 32.75C29.1193 32.75 28 33.1977 28 33.75" stroke="#E65425" stroke-width="2.3"/>
<path d="M22 42.75C22 41.6454 20.8807 40.75 19.5 40.75C18.1193 40.75 17 41.6454 17 42.75" stroke="white" stroke-width="2.3"/>
<path d="M22 42.75C22 41.6454 20.8807 40.75 19.5 40.75C18.1193 40.75 17 41.6454 17 42.75" stroke="#E65425" stroke-width="2.3"/>
<path d="M33 42.75C33 41.6454 31.8807 40.75 30.5 40.75C29.1193 40.75 28 41.6454 28 42.75" stroke="white" stroke-width="2.3"/>
<path d="M33 42.75C33 41.6454 31.8807 40.75 30.5 40.75C29.1193 40.75 28 41.6454 28 42.75" stroke="#E65425" stroke-width="2.3"/>
<path d="M28 42.75C28 43.3023 26.6569 43.75 25 43.75C23.3431 43.75 22 43.3023 22 42.75" stroke="white" stroke-width="2.3"/>
<path d="M28 42.75C28 43.3023 26.6569 43.75 25 43.75C23.3431 43.75 22 43.3023 22 42.75" stroke="#E65425" stroke-width="2.3"/>
</svg>
