<svg width="60" height="60" viewBox="0 0 60 60" fill="none" xmlns="http://www.w3.org/2000/svg">
<path d="M59 31H1C0.447771 31 0 30.5522 0 30C0 29.4478 0.447771 29 1 29H59C59.5522 29 60 29.4478 60 30C60 30.5522 59.5522 31 59 31Z" fill="white"/>
<path d="M59 31H1C0.447771 31 0 30.5522 0 30C0 29.4478 0.447771 29 1 29H59C59.5522 29 60 29.4478 60 30C60 30.5522 59.5522 31 59 31Z" fill="#E65425"/>
<path d="M1 34C0.447771 34 0 33.5522 0 33V27C0 26.4478 0.447771 26 1 26C1.55223 26 2 26.4478 2 27V33C2 33.2652 1.89464 33.5196 1.70714 33.7071C1.51964 33.8946 1.26518 34 1 34Z" fill="white"/>
<path d="M1 34C0.447771 34 0 33.5522 0 33V27C0 26.4478 0.447771 26 1 26C1.55223 26 2 26.4478 2 27V33C2 33.2652 1.89464 33.5196 1.70714 33.7071C1.51964 33.8946 1.26518 34 1 34Z" fill="#E65425"/>
<path d="M11 34C10.4478 34 10 33.5522 10 33V27C10 26.4478 10.4478 26 11 26C11.5522 26 12 26.4478 12 27V33C12 33.2652 11.8946 33.5196 11.7071 33.7071C11.5196 33.8946 11.2652 34 11 34Z" fill="white"/>
<path d="M11 34C10.4478 34 10 33.5522 10 33V27C10 26.4478 10.4478 26 11 26C11.5522 26 12 26.4478 12 27V33C12 33.2652 11.8946 33.5196 11.7071 33.7071C11.5196 33.8946 11.2652 34 11 34Z" fill="#E65425"/>
<path d="M59 34C58.4478 34 58 33.5522 58 33V27C58 26.4478 58.4478 26 59 26C59.5522 26 60 26.4478 60 27V33C60 33.2652 59.8946 33.5196 59.7071 33.7071C59.5196 33.8946 59.2652 34 59 34Z" fill="white"/>
<path d="M59 34C58.4478 34 58 33.5522 58 33V27C58 26.4478 58.4478 26 59 26C59.5522 26 60 26.4478 60 27V33C60 33.2652 59.8946 33.5196 59.7071 33.7071C59.5196 33.8946 59.2652 34 59 34Z" fill="#E65425"/>
<path d="M49 34C48.4478 34 48 33.5522 48 33V27C48 26.4478 48.4478 26 49 26C49.5522 26 50 26.4478 50 27V33C50 33.2652 49.8946 33.5196 49.7071 33.7071C49.5196 33.8946 49.2652 34 49 34Z" fill="white"/>
<path d="M49 34C48.4478 34 48 33.5522 48 33V27C48 26.4478 48.4478 26 49 26C49.5522 26 50 26.4478 50 27V33C50 33.2652 49.8946 33.5196 49.7071 33.7071C49.5196 33.8946 49.2652 34 49 34Z" fill="#E65425"/>
<path d="M30 60C29.4478 60 29 59.5522 29 59V1C29 0.447771 29.4478 0 30 0C30.5522 0 31 0.447771 31 1V59C31 59.2652 30.8946 59.5196 30.7071 59.7071C30.5196 59.8946 30.2652 60 30 60Z" fill="white"/>
<path d="M33 2H27C26.4478 2 26 1.55223 26 1C26 0.447771 26.4478 0 27 0H33C33.5522 0 34 0.447771 34 1C34 1.55223 33.5522 2 33 2Z" fill="white"/>
<path d="M33 12H27C26.4478 12 26 11.5522 26 11C26 10.4478 26.4478 10 27 10H33C33.5522 10 34 10.4478 34 11C34 11.5522 33.5522 12 33 12Z" fill="white"/>
<path d="M33 60H27C26.4478 60 26 59.5522 26 59C26 58.4478 26.4478 58 27 58H33C33.5522 58 34 58.4478 34 59C34 59.5522 33.5522 60 33 60Z" fill="white"/>
<path d="M33 50H27C26.4478 50 26 49.5522 26 49C26 48.4478 26.4478 48 27 48H33C33.5522 48 34 48.4478 34 49C34 49.5522 33.5522 50 33 50Z" fill="white"/>
<path d="M59 24C52.9 24 47.0503 21.5768 42.7372 17.2634C38.4238 12.95 36.0006 7.09998 36.0006 1.00055C36.0006 0.448321 36.4484 0.000549316 37.0006 0.000549316C37.5528 0.000549316 38.0006 0.448321 38.0006 1.00055C38.0006 6.57015 40.2131 11.9117 44.1515 15.8497C48.0894 19.7881 53.4309 22.0005 59.0006 22.0005C59.5528 22.0005 60.0006 22.4483 60.0006 23.0005C60.0006 23.5528 59.5528 24.0005 59.0006 24.0005L59 24Z" fill="white"/>
<path d="M23 60C22.4478 60 22 59.5522 22 59C22 53.4304 19.7875 48.0888 15.8491 44.1509C11.9112 40.2125 6.56971 38 1 38C0.447771 38 0 37.5522 0 37C0 36.4478 0.447771 36 1 36C7.1 36 12.9497 38.4232 17.2629 42.7366C21.5762 47.0499 23.9994 52.9 23.9994 58.9994C23.9994 59.2646 23.8941 59.5191 23.7066 59.7066C23.5191 59.8941 23.2646 59.9994 22.9994 59.9994L23 60Z" fill="white"/>
<path d="M36.92 42C36.4726 42.0013 36.0784 41.7054 35.9552 41.2754C35.832 40.8451 36.0097 40.3857 36.3901 40.15C37.9088 39.1937 39.1936 37.909 40.1498 36.3902C40.4454 35.9206 41.0655 35.7795 41.5346 36.075C42.0043 36.3706 42.1453 36.9907 41.8498 37.4598C40.7239 39.2259 39.2257 40.7241 37.4596 41.85C37.2976 41.9505 37.1105 42.0027 36.9199 42L36.92 42Z" fill="white"/>
<path d="M19 24.08C18.8112 24.0814 18.6268 24.0255 18.4701 23.9202C18.2442 23.78 18.0835 23.5555 18.0237 23.2965C17.9634 23.0376 18.0089 22.7653 18.15 22.5403C19.2759 20.7742 20.7741 19.2761 22.5402 18.1501C23.0094 17.8546 23.6295 17.9956 23.925 18.4653C24.2205 18.9345 24.0795 19.5546 23.6098 19.8501C22.0911 20.8063 20.8063 22.0911 19.85 23.6099C19.667 23.9032 19.3456 24.0808 19 24.08L19 24.08Z" fill="white"/>
<path d="M30 40C27.3478 40 24.8045 38.9464 22.929 37.071C21.0536 35.1955 20 32.6522 20 30C20 27.3478 21.0536 24.8045 22.929 22.929C24.8045 21.0536 27.3478 20 30 20C32.6522 20 35.1955 21.0536 37.071 22.929C38.9464 24.8045 40 27.3478 40 30C40 32.6522 38.9464 35.1955 37.071 37.071C35.1955 38.9464 32.6522 40 30 40ZM30 22C27.8782 22 25.8433 22.8429 24.3433 24.3433C22.8429 25.8433 22 27.8782 22 30C22 32.1218 22.8429 34.1567 24.3433 35.6567C25.8433 37.1571 27.8782 38 30 38C32.1218 38 34.1567 37.1571 35.6567 35.6567C37.1571 34.1567 38 32.1218 38 30C38 27.8782 37.1571 25.8433 35.6567 24.3433C34.1567 22.8429 32.1218 22 30 22Z" fill="white"/>
<path d="M30 40C27.3478 40 24.8045 38.9464 22.929 37.071C21.0536 35.1955 20 32.6522 20 30C20 27.3478 21.0536 24.8045 22.929 22.929C24.8045 21.0536 27.3478 20 30 20C32.6522 20 35.1955 21.0536 37.071 22.929C38.9464 24.8045 40 27.3478 40 30C40 32.6522 38.9464 35.1955 37.071 37.071C35.1955 38.9464 32.6522 40 30 40ZM30 22C27.8782 22 25.8433 22.8429 24.3433 24.3433C22.8429 25.8433 22 27.8782 22 30C22 32.1218 22.8429 34.1567 24.3433 35.6567C25.8433 37.1571 27.8782 38 30 38C32.1218 38 34.1567 37.1571 35.6567 35.6567C37.1571 34.1567 38 32.1218 38 30C38 27.8782 37.1571 25.8433 35.6567 24.3433C34.1567 22.8429 32.1218 22 30 22Z" fill="#E65425"/>
</svg>
