<svg width="34" height="34" viewBox="0 0 34 34" fill="none" xmlns="http://www.w3.org/2000/svg">
<circle cx="17" cy="17" r="16.5" stroke=""/>
<path fill-rule="evenodd" clip-rule="evenodd" d="M16.5403 10.8067C20.0284 11.3718 21.6371 13.1197 22.0813 16.8218C22.1225 17.1637 22.0016 17.6782 22.4646 17.6877C22.9485 17.6975 22.8318 17.1905 22.8359 16.8482C22.8769 13.3614 19.9919 10.1292 16.6411 10.0099C16.3883 10.0483 15.8652 9.82619 15.8326 10.4233C15.8109 10.8258 16.2513 10.7598 16.5403 10.8067Z" fill="#333333"/>
<path fill-rule="evenodd" clip-rule="evenodd" d="M21.9233 20.8414C20.7526 19.9711 19.2806 18.3058 18.1335 20.1607C17.7506 20.7715 17.2147 20.7981 16.6543 20.5303C15.1095 19.7922 13.9167 18.655 13.2179 17.0004C12.3939 14.9452 14.4113 15.3313 14.3739 13.8984C14.3337 13.1185 12.5364 10.5116 11.8266 10.2364C11.5328 10.1226 11.2403 10.13 10.9415 10.2358C9.27717 10.8255 8.58781 12.2679 9.24801 13.9757C11.2176 19.071 14.6837 22.6181 19.4551 24.7831C19.7272 24.9063 20.0293 24.9556 20.1823 24.9999C21.2687 25.0115 22.5411 23.9086 22.9087 22.814C23.2625 21.761 22.5148 21.3432 21.9233 20.8414Z" fill="#333333"/>
<path fill-rule="evenodd" clip-rule="evenodd" d="M17.2257 11.8188C16.8902 11.7762 16.4472 11.6096 16.3689 12.1003C16.287 12.6152 16.7806 12.563 17.0979 12.6377C19.2523 13.1451 20.0024 13.9714 20.3571 16.2232C20.409 16.5515 20.306 17.0625 20.8355 16.9778C21.2278 16.9147 21.0862 16.4768 21.119 16.221C21.1364 14.059 19.3783 12.0913 17.2257 11.8188Z" fill="#333333"/>
<path fill-rule="evenodd" clip-rule="evenodd" d="M17.4297 13.578C17.2057 13.5838 16.986 13.6093 16.9036 13.8615C16.78 14.2385 17.0401 14.3283 17.3048 14.3731C18.1885 14.5226 18.6536 15.0718 18.742 16.0005C18.7659 16.2525 18.9177 16.4568 19.1487 16.428C19.4689 16.3878 19.4979 16.0874 19.488 15.8022C19.5038 14.7588 18.3847 13.5529 17.4297 13.578Z" fill="#333333"/>
</svg>
