<svg width="34" height="34" viewBox="0 0 34 34" fill="none" xmlns="http://www.w3.org/2000/svg">
<circle cx="17" cy="17" r="16.5" stroke=""/>
<path fill-rule="evenodd" clip-rule="evenodd" d="M23.3774 10.6158C21.6853 8.92985 19.4351 8.00098 17.0376 8C12.0977 8 8.07709 12.001 8.07516 16.9188C8.07447 18.4909 8.48717 20.0254 9.27149 21.378L8 26L12.7511 24.7597C14.0601 25.4703 15.534 25.8448 17.034 25.8453H17.0376C17.0373 25.8453 17.0379 25.8453 17.0376 25.8453C21.977 25.8453 25.9979 21.8439 26 16.926C26.0009 14.5427 25.0695 12.3017 23.3774 10.6158ZM17.0376 24.339H17.0346C15.698 24.3384 14.3869 23.981 13.2432 23.3056L12.9712 23.1449L10.1519 23.8809L10.9044 21.1453L10.7273 20.8647C9.98164 19.6844 9.58782 18.3201 9.5884 16.9194C9.59 12.8319 12.9318 9.50644 17.0406 9.50644C19.0303 9.50706 20.9006 10.2792 22.307 11.6805C23.7134 13.0818 24.4875 14.9445 24.4867 16.9254C24.4851 21.0132 21.1434 24.339 17.0376 24.339Z" fill="#333333"/>
<path fill-rule="evenodd" clip-rule="evenodd" d="M21.1236 18.7866C20.8997 18.675 19.7987 18.136 19.5934 18.0615C19.3882 17.9872 19.2389 17.95 19.0896 18.1731C18.9403 18.3961 18.5111 18.8982 18.3805 19.047C18.2499 19.1956 18.1192 19.2143 17.8953 19.1027C17.6714 18.9911 16.9498 18.7558 16.0945 17.9965C15.4288 17.4055 14.9793 16.6758 14.8487 16.4526C14.7181 16.2295 14.8348 16.1089 14.9469 15.9978C15.0476 15.8979 15.1709 15.7375 15.2828 15.6073C15.3948 15.4772 15.4321 15.3842 15.5068 15.2355C15.5814 15.0868 15.5441 14.9566 15.4881 14.8451C15.4321 14.7335 14.9843 13.6365 14.7977 13.1902C14.6158 12.7557 14.4312 12.8146 14.2938 12.8077C14.1633 12.8012 14.0138 12.7999 13.8646 12.7999C13.7153 12.7999 13.4727 12.8556 13.2674 13.0787C13.0622 13.3019 12.4836 13.8411 12.4836 14.938C12.4836 16.035 13.2861 17.0947 13.398 17.2434C13.51 17.3922 14.9771 19.6433 17.2235 20.6086C17.7578 20.8383 18.175 20.9754 18.5002 21.0781C19.0366 21.2478 19.5248 21.2238 19.9107 21.1664C20.3409 21.1024 21.2356 20.6273 21.4222 20.1068C21.6088 19.5861 21.6088 19.1398 21.5528 19.0469C21.4968 18.954 21.3475 18.8982 21.1236 18.7866Z" fill="#333333"/>
</svg>
