<svg width="142" height="45" viewBox="0 0 142 45" fill="none" xmlns="http://www.w3.org/2000/svg">
    <path d="M132.742 44C108.443 44 85.6531 37.513 66 26.1708M198.914 26.8292C218.567 15.487 241.357 9 265.656 9C289.956 9 312.746 15.487 332.399 26.8292M133.313 44C157.612 44 180.402 37.513 200.055 26.1708M398 44C373.7 44 350.911 37.513 331.258 26.1708" stroke="#EBEBEB"/>
    <path d="M0 1C24.2996 1 47.0892 7.48702 66.7423 18.8292M132.344 36C108.044 36 85.2545 29.513 65.6014 18.1708M198.515 18.8292C218.169 7.48702 240.958 1 265.258 1C289.557 1 312.347 7.48702 332 18.8292M132.914 36C157.214 36 180.003 29.513 199.656 18.1708" stroke="#EBEBEB"/>
</svg>
