<svg width="1130" height="1069" viewBox="0 0 1130 1069" fill="none" xmlns="http://www.w3.org/2000/svg">
<path d="M-411.03 160.256C-365.573 147.199 -253.372 150.409 -168.219 267.709C-61.7788 414.334 34.9162 553.798 188.962 584.102C371.508 620.012 628.528 700.6 694.369 780.146C747.042 843.782 772.527 901.372 778.686 922.213" stroke="#E3E3E3"/>
<path d="M-12.4861 1C-16.8003 97.7051 6.41921 316.227 133.811 416.676C293.051 542.236 372.009 541.55 529.652 577.164C687.296 612.779 777.015 747.08 799.5 799C827 862.5 859.143 996.767 969.371 1068" stroke="#E3E3E3"/>
<path d="M-155.5 747.5C-32 701 216.5 630 442.5 717C630.838 789.502 691 882.5 701.5 917" stroke="#E3E3E3"/>
<circle cx="53" cy="315" r="4" fill="#E6E6E6"/>
<circle cx="235" cy="486" r="4" fill="#E6E6E6"/>
<circle cx="119" cy="561" r="4" fill="#E6E6E6"/>
<circle cx="253" cy="678" r="4" fill="#E6E6E6"/>
<circle cx="657" cy="850" r="4" fill="#E6E6E6"/>
<circle cx="775" cy="756" r="4" fill="#E6E6E6"/>
</svg>
