<svg width="1061" height="704" viewBox="0 0 1061 704" fill="none" xmlns="http://www.w3.org/2000/svg">
<path d="M4 27.9999C33 10.4999 142.5 -6.5001 225 40.9999C359.94 118.693 258 271 383 382C508 493 661.5 379.5 831.5 373.5C967.5 368.7 1085.83 548.166 1128 638.5" stroke="white" stroke-opacity="0.13"/>
<circle cx="4" cy="28" r="4" fill="#1CADFF"/>
<circle cx="334" cy="317" r="4" fill="#1CADFF"/>
<circle cx="728" cy="388" r="4" fill="#1CADFF"/>
<circle cx="987" cy="442" r="4" fill="#1CADFF"/>
<path d="M415.5 1C405 79.5 384 236.5 462 298.5C540 360.5 657.563 328.306 728 279C798 230 833 172 937 166C1018.5 161.298 1105.17 228.167 1138.5 264.5" stroke="white" stroke-opacity="0.13"/>
<circle cx="936" cy="167" r="4" fill="#1CADFF"/>
<circle cx="522" cy="328" r="4" fill="#1CADFF"/>
<circle cx="415" cy="6" r="4" fill="#1CADFF"/>
<path d="M267 438C294 484.333 382.767 550 470 550C635 550 639 458 759 466C845.905 471.794 904.851 560.427 912 620C918 670 898 732 892 756" stroke="white" stroke-opacity="0.13"/>
<circle cx="269" cy="442" r="4" fill="#1CADFF"/>
<circle cx="562" cy="537" r="4" fill="#1CADFF"/>
<circle cx="913" cy="632" r="4" fill="#1CADFF"/>
</svg>
