<svg width="759" height="880" viewBox="0 0 759 880" fill="none" xmlns="http://www.w3.org/2000/svg">
<path d="M188.311 1099.73C175.803 1068.25 176.985 957.444 237.367 883.848C336.132 763.471 469.665 889.001 599.657 783.89C729.648 678.78 642.849 508.749 664.801 340.065C682.362 205.119 878.801 117.809 974.825 91.0224" stroke="white" stroke-opacity="0.13"/>
<circle cx="527.503" cy="821.571" r="4" transform="rotate(-80.5641 527.503 821.571)" fill="#1CADFF"/>
<circle cx="662.136" cy="444.542" r="4" transform="rotate(-80.5641 662.136 444.542)" fill="#1CADFF"/>
<circle cx="757.867" cy="197.899" r="4" transform="rotate(-80.5641 757.867 197.899)" fill="#1CADFF"/>
<path d="M218.424 753.763C289.497 788.707 451.413 787.482 535.018 733.276C618.623 679.07 625.528 557.375 601.21 474.906C577.042 392.949 533.201 341.307 560.62 240.807" stroke="white" stroke-opacity="0.13"/>
<circle cx="561.25" cy="242.073" r="4" transform="rotate(-71.4377 561.25 242.073)" fill="#1CADFF"/>
<circle cx="582.084" cy="685.788" r="4" transform="rotate(-71.4377 582.084 685.788)" fill="#1CADFF"/>
<circle cx="220.065" cy="754.744" r="4" transform="rotate(-71.4377 220.065 754.744)" fill="#1CADFF"/>
<path d="M553.262 929.275C605.78 918.429 696.288 855.184 724.058 772.489C776.583 616.073 690.643 582.994 736.427 471.783C769.584 391.244 872.371 363.579 931.121 375.766C980.43 385.995 1032.84 424.692 1053.68 438.02" stroke="white" stroke-opacity="0.13"/>
<circle cx="741.021" cy="681.137" r="4" transform="rotate(-71.4377 741.021 681.137)" fill="#1CADFF"/>
</svg>
