<svg width="640" height="118" viewBox="0 0 640 118" fill="none" xmlns="http://www.w3.org/2000/svg">
<path d="M319.103 53C289.707 53 262.137 45.2156 238.362 31.6049M399.155 32.3951C422.93 18.7844 450.5 11 479.897 11C509.293 11 536.863 18.7844 560.638 32.3951M319.793 53C349.19 53 376.76 45.2156 400.535 31.6049M640 53C610.603 53 583.034 45.2156 559.258 31.6049" stroke="#E2E2E2"/>
<path d="M159 1C188.397 1 215.966 8.78442 239.742 22.3951M319.103 43C289.707 43 262.137 35.2156 238.362 21.6049M399.155 22.3951C422.93 8.78442 450.5 1 479.897 1C509.293 1 536.863 8.78442 560.638 22.3951M319.793 43C349.19 43 376.76 35.2156 400.535 21.6049" stroke="#E2E2E2"/>
<path d="M160.103 65C130.707 65 103.137 72.7844 79.3616 86.3951M240.155 85.6049C263.93 99.2156 291.5 107 320.897 107C350.293 107 377.863 99.2156 401.638 85.6049M160.793 65C190.19 65 217.76 72.7844 241.535 86.3951M481 65C451.603 65 424.034 72.7844 400.258 86.3951" stroke="#E2E2E2"/>
<path d="M0 117C29.3966 117 56.9663 109.216 80.7418 95.6049M160.103 75C130.707 75 103.137 82.7844 79.3615 96.3951M240.155 95.6049C263.93 109.216 291.5 117 320.897 117C350.293 117 377.863 109.216 401.638 95.6049M160.793 75C190.19 75 217.76 82.7844 241.535 96.3951" stroke="#E2E2E2"/>
</svg>
