<svg width="1862" height="196" viewBox="0 0 1862 196" fill="none" xmlns="http://www.w3.org/2000/svg">
<path d="M1648.29 193.81H1710.77V2.18999H1648.29V193.81ZM1862 193.81L1786.8 112.782C1779.89 105.391 1778.78 99.095 1778.78 94.9888C1778.78 90.0615 1781.82 84.5866 1784.59 81.3017L1851.77 2.18999H1777.68L1725.7 74.4581C1722.11 79.3855 1719.62 88.419 1719.62 95.5363C1719.62 104.022 1722.66 112.782 1728.19 119.626L1786.8 193.81H1862ZM1640 193.81V146.179H1539.64C1536.32 146.179 1532.18 145.905 1529.69 143.715C1526.92 141.251 1526.65 136.598 1526.65 134.408V2.18999H1464.17V169.173C1464.17 177.112 1468.31 184.229 1472.74 187.788C1477.99 192.168 1486.28 193.81 1493.75 193.81H1640ZM1436.52 193.81V2.18999H1374.04V193.81H1436.52ZM1279.21 77.743C1280.87 72.5419 1281.97 70.8995 1283.08 70.8995C1284.19 70.8995 1285.57 71.9944 1285.57 77.1955L1283.36 193.81H1346.39V33.6704C1346.39 21.8994 1342.8 0 1298.84 0C1282.25 0 1259.03 1.91621 1249.07 31.7542L1217.83 124.827C1217.28 126.743 1214.24 133.587 1212.03 133.587C1209.82 133.587 1206.78 126.743 1206.22 124.827L1174.98 31.7542C1165.03 1.91621 1141.81 0 1125.49 0C1115.54 0 1077.94 0 1077.94 33.6704V193.81H1140.7L1138.76 77.1955C1138.76 75.2793 1138.49 70.8995 1140.98 70.8995C1142.36 70.8995 1143.74 74.1844 1144.85 77.743L1174.7 170.268C1179.13 184.229 1184.66 196 1212.03 196C1239.4 196 1244.93 184.229 1249.35 170.268L1279.21 77.743ZM877.504 193.81H1010.21C1023.48 193.81 1038.13 193.536 1049.19 179.028C1058.04 167.531 1058.59 152.201 1058.59 140.978C1058.59 127.838 1057.48 108.95 1045.32 97.1788C1038.41 90.3352 1027.07 85.9553 1018.5 83.7654L953.256 66.5196C945.791 64.6033 936.944 62.1397 936.944 56.1173C936.944 53.9274 938.326 51.7375 939.985 50.9162C941.091 50.3688 943.026 49.8213 950.214 49.8213H1048.64V2.18999H920.909C904.321 2.18999 893.815 8.21231 887.733 14.2347C876.398 25.4581 875.569 40.514 875.569 52.5587C875.569 66.7933 876.951 83.2179 886.074 95.2626C889.945 100.464 896.856 106.76 908.192 109.771L983.114 130.575C989.473 132.218 995.555 134.134 995.555 140.156C995.555 142.894 993.896 146.179 984.773 146.179H877.504V193.81ZM856.216 2.18999H808.111V116.341C808.111 117.71 808.111 120.994 805.07 120.994C802.858 120.994 801.199 118.257 799.817 116.341L729.318 17.7933C717.43 1.09502 698.907 0 688.401 0C666.007 0 644.996 9.03355 644.996 33.9442V193.81H693.101V80.2067C693.101 74.7318 696.142 74.7318 696.971 74.7318C698.907 74.7318 700.842 77.4693 702.224 79.3855L772.17 177.112C784.335 194.084 799.54 196 814.193 196C854.833 196 856.216 168.626 856.216 161.782V2.18999ZM521.139 62.1397C521.692 60.771 522.798 58.0335 523.627 58.0335C524.456 58.0335 525.562 60.771 526.115 62.1397L543.533 110.592H503.721L521.139 62.1397ZM407.788 193.81H473.587L488.792 154.391H558.462L573.667 193.81H639.466L567.862 23.2681C558.738 1.91621 542.15 0 523.627 0C493.769 0 485.475 9.03355 479.392 23.2681L407.788 193.81ZM211.773 193.81H274.255V64.8772C274.255 60.2235 273.978 56.3911 277.849 52.8324C280.613 50.095 283.931 49.8213 287.525 49.8213H322.083C327.889 49.8213 334.801 49.5475 339.5 54.4749C340.883 55.8436 344.2 60.2235 344.2 70.6257C344.2 75.5531 343.095 82.6704 340.053 86.5028C335.63 91.7039 328.165 92.2514 322.636 92.2514H312.683C296.648 92.2514 284.76 101.011 284.76 113.877V117.983C284.76 127.291 291.672 135.503 298.031 143.989L335.354 193.81H410.552L355.259 136.598V135.503H363.553C378.482 135.503 392.306 128.659 399.494 111.687C406.129 96.0838 406.682 73.3631 406.682 64.6033C406.682 50.095 405.023 33.1229 396.729 20.8045C384.012 2.18999 362.724 2.18999 350.559 2.18999H245.226C237.761 2.18999 226.426 3.55869 219.238 11.4972C212.326 19.162 211.773 30.1117 211.773 38.8715V193.81ZM131.598 193.81V49.8213H200.714V2.18999H0V49.8213H69.1166V193.81H131.598Z" fill="white" fill-opacity="0.04"/>
</svg>
